<?xml version="1.0" encoding="UTF-8"?>
<svg id="Capa_1" xmlns="http://www.w3.org/2000/svg" version="1.1" viewBox="0 0 52 52">
  <!-- Generator: Adobe Illustrator 29.8.2, SVG Export Plug-In . SVG Version: 2.1.1 Build 3)  -->
  <defs>
    <style>
      .st0 {
        fill: #1f77d6;
        stroke: #1f77d6;
        stroke-miterlimit: 10;
      }
    </style>
  </defs>
  <path class="st0" d="M34.7,33.7c-2,0-3.7-1.7-3.7-3.7v-7c0-2,1.7-3.7,3.7-3.7s3.7,1.7,3.7,3.7v7c0,2-1.7,3.7-3.7,3.7ZM34.7,20.4c-1.4,0-2.5,1.1-2.5,2.5v7c0,1.4,1.1,2.5,2.5,2.5s2.5-1.1,2.5-2.5v-7c0-1.4-1.1-2.5-2.5-2.5Z"/>
  <path class="st0" d="M25.9,33.7c-2,0-3.7-1.7-3.7-3.7v-1.9c0-2,1.7-3.7,3.7-3.7s3.7,1.7,3.7,3.7v1.9c0,2-1.7,3.7-3.7,3.7ZM25.9,25.5c-1.4,0-2.5,1.1-2.5,2.5v1.9c0,1.4,1.1,2.5,2.5,2.5s2.5-1.1,2.5-2.5v-1.9c0-1.4-1.1-2.5-2.5-2.5Z"/>
  <path class="st0" d="M22.8,29.9c-.3,0-.6-.3-.6-.6v-6.5c0-1.9,1.6-3.5,3.5-3.5s3.5,1.6,3.5,3.5-.3.6-.6.6-.6-.3-.6-.6c0-1.3-1-2.3-2.3-2.3s-2.3,1-2.3,2.3v6.5c0,.3-.3.6-.6.6Z"/>
  <path class="st0" d="M17.1,33.7c-2,0-3.6-1.6-3.6-3.6v-.4c0-.3.3-.6.6-.6s.6.3.6.6v.4c0,1.3,1.1,2.4,2.4,2.4s2.4-1.1,2.4-2.4v-.9c0-1.3-1.1-2.4-2.4-2.4s-.6-.3-.6-.6.3-.6.6-.6c1.3,0,2.4-1.1,2.4-2.4h0c0-1.5-1.1-2.6-2.4-2.6s-2.4,1.1-2.4,2.4-.3.6-.6.6-.6-.3-.6-.6c0-2,1.6-3.6,3.6-3.6s3.6,1.6,3.6,3.6h0c0,1.4-.7,2.5-1.6,3.2,1,.7,1.6,1.8,1.6,3v.9c0,2-1.6,3.6-3.6,3.6Z"/>
  <path class="st0" d="M40.4,20.3c-1.2,0-2.2-1-2.2-2.2s1-2.2,2.2-2.2,2.2,1,2.2,2.2-1,2.2-2.2,2.2ZM40.4,17c-.6,0-1.1.5-1.1,1.1s.5,1.1,1.1,1.1,1.1-.5,1.1-1.1-.5-1.1-1.1-1.1Z"/>
  <path class="st0" d="M26,50c-3.4,0-6.7-.7-9.9-2.2-5.7-2.6-10.1-7.3-12.3-13.3-2.2-5.9-1.9-12.3.7-18s7.3-10.1,13.3-12.3c0,0,0,0,.1,0,0,0,.2,0,.3-.1.3-.1.7,0,.8.4.1.3,0,.7-.4.8,0,0-.2,0-.3,0,0,0,0,0-.1,0-5.6,2.1-10.1,6.2-12.6,11.6-2.5,5.4-2.7,11.5-.7,17.1,2.1,5.6,6.2,10.1,11.6,12.6,5.4,2.5,11.5,2.7,17.1.7,5.6-2.1,10.1-6.2,12.6-11.6,2.5-5.4,2.7-11.5.7-17.1-.6-1.7-1.4-3.2-2.4-4.7-.2-.3-.1-.6.2-.8.3-.2.6-.1.8.2,1,1.5,1.9,3.2,2.5,4.9,2.2,5.9,1.9,12.3-.7,18-2.6,5.7-7.3,10.1-13.3,12.3-2.7,1-5.4,1.5-8.2,1.5Z"/>
  <path class="st0" d="M16.2,11.3c0,0-.1,0-.2,0-.3-.1-.5-.5-.4-.8l2-5.4-5.5-1.9c-.3-.1-.5-.4-.4-.8.1-.3.4-.5.8-.4l6,2.1c.2,0,.3.2.3.3s0,.3,0,.5l-2.2,6c0,.2-.3.4-.6.4Z"/>
  <path class="st0" d="M42.7,11.1c-.2,0-.3,0-.4-.2,0,0-.1-.1-.2-.2-.2-.2-.2-.6,0-.8.2-.2.6-.2.8,0,0,0,.1.1.2.2.2.2.2.6,0,.8-.1.1-.3.2-.4.2ZM40.4,9.1c-.1,0-.3,0-.4-.1,0,0-.1,0-.2-.1-.3-.2-.3-.6-.1-.8.2-.3.6-.3.8-.1,0,0,.1.1.2.2.3.2.3.6,0,.8-.1.1-.3.2-.5.2ZM37.9,7.3c-.1,0-.2,0-.3,0,0,0-.1,0-.2-.1-.3-.2-.4-.5-.2-.8.2-.3.5-.4.8-.2,0,0,.1,0,.2.1.3.2.4.5.2.8-.1.2-.3.3-.5.3ZM35.2,5.9c0,0-.2,0-.2,0,0,0-.1,0-.2,0-.3-.1-.4-.5-.3-.8.1-.3.5-.4.8-.3,0,0,.2,0,.2,0,.3.1.4.5.3.8,0,.2-.3.4-.5.4ZM32.3,4.9c0,0-.1,0-.2,0,0,0-.2,0-.2,0-.3,0-.5-.4-.4-.7,0-.3.4-.5.7-.4,0,0,.2,0,.2,0,.3,0,.5.4.4.7,0,.3-.3.4-.6.4ZM29.3,4.2s0,0,0,0c0,0-.2,0-.2,0-.3,0-.6-.3-.5-.7,0-.3.3-.6.7-.5,0,0,.2,0,.2,0,.3,0,.6.4.5.7,0,.3-.3.5-.6.5ZM26.2,4s0,0,0,0c0,0-.2,0-.2,0-.3,0-.6-.3-.6-.6s.3-.6.6-.6.2,0,.2,0c.3,0,.6.3.6.6,0,.3-.3.6-.6.6Z"/>
</svg>