<?xml version="1.0" encoding="UTF-8"?>
<svg id="Capa_1" xmlns="http://www.w3.org/2000/svg" version="1.1" viewBox="0 0 52 52">
  <!-- Generator: Adobe Illustrator 29.8.2, SVG Export Plug-In . SVG Version: 2.1.1 Build 3)  -->
  <defs>
    <style>
      .st0 {
        stroke-width: .5px;
      }

      .st0, .st1 {
        fill: none;
        stroke: #1f77d6;
        stroke-linecap: round;
        stroke-linejoin: round;
      }
    </style>
  </defs>
  <path class="st1" d="M35.7,42.8c-2.7,0-4.2-8.7-4.2-16.9s0-1.8,0-2.7h.7c0,.9,0,1.8,0,2.7,0,9.6,1.9,16.2,3.5,16.2s3.5-6.7,3.5-16.2-1.9-16.2-3.5-16.2-3.1,4.8-3.4,12.8h-.6c.3-6.7,1.7-13.4,4.1-13.4s4.2,8.7,4.2,16.9-1.5,16.9-4.2,16.9Z"/>
  <rect class="st1" x="35.7" y="9.1" width="13.2" height=".7"/>
  <rect class="st1" x="35.7" y="42.1" width="13.2" height=".7"/>
  <g>
    <path class="st0" d="M35.1,34c-1.6,0-2.1-4.9-2.1-8.1s0-1.2,0-1.7h.6c0,.6,0,1.2,0,1.7,0,4.8,1,7.5,1.5,7.5s1.5-2.6,1.5-7.5-1-7.5-1.5-7.5-1,1-1.3,4h-.6c.2-1.8.7-4.7,2-4.7s2.1,4.9,2.1,8.1-.6,8.1-2.1,8.1Z"/>
    <rect class="st0" x="35.1" y="17.8" width="1.2" height=".7"/>
    <rect class="st0" x="35.1" y="33.4" width="1.2" height=".7"/>
  </g>
  <path class="st0" d="M36.2,34v-.7c.5,0,1.5-2.6,1.5-7.5s-1-7.5-1.5-7.5v-.7c1.6,0,2.1,4.9,2.1,8.1s-.6,8.1-2.1,8.1Z"/>
  <rect class="st1" x="39.1" y="39.9" width="10.9" height=".7"/>
  <g>
    <path class="st1" d="M18.3,28.2h-7.6v-12.9c0-2,1.7-3.7,3.7-3.7h.2c2,0,3.7,1.6,3.7,3.7v4.9h-.7v-4.9c0-1.7-1.4-3-3-3h-.2c-1.7,0-3,1.4-3,3v12.3h6.3v-4.8h.7v5.5Z"/>
    <path class="st1" d="M13,12.2c-.1-.8,0-1.5.3-2.2l.7-2.4c.2-.8.6-1.4,1.2-1.8.6-.4,1.3-.6,1.9-.4.7.2,1.2.7,1.5,1.5l-.6.2c-.2-.6-.6-1-1.1-1.1-.4-.1-.9,0-1.4.3-.5.3-.8.9-1,1.5l-.7,2.4c-.2.7-.3,1.2-.2,2h-.6Z"/>
    <path class="st0" d="M17,13.2l-.2-.6c.3-.1.6-.3.8-.8l1.3-2.8c.3-.6-.1-1.2-.8-1.8l-1.5,5.3-.6-.2h0c0,0,1.7-6.3,1.7-6.3l.4.3s.1,0,.2.1c0,0,.1.1.2.2.5.4,1.5,1.3,1,2.6h0s-1.3,2.9-1.3,2.9c-.3.5-.7.9-1.2,1.1Z"/>
    <rect class="st0" x="15.4" y="6.8" width=".7" height="3.3" transform="translate(2.8 20.6) rotate(-71.3)"/>
    <rect class="st0" x="18.8" y="9.9" width="1.7" height=".7" transform="translate(2.1 23.6) rotate(-64.8)"/>
    <path class="st0" d="M21.1,23.8c0,0-.2,0-.2,0l-7.3-1.8c-.5-.1-.8-.6-.9-1.1l-.4-6.4c0-.7.2-1.2.5-1.4.3-.3.7-.5,1.1-.5.7,0,1.5.5,1.6,1.7l.3,4.6c0,.2.2.4.4.5l5.6,1.4c.2,0,.4.2.6.4.1.2.2.5.1.7l-.3,1.2c-.1.4-.5.7-.9.7ZM13.8,13.4c-.2,0-.4,0-.6.3-.2.2-.3.5-.3.9l.4,6.3c0,.2.2.4.4.5l7.3,1.8c.2,0,.3,0,.3-.2l.3-1.2c0,0,0-.2,0-.2,0,0-.1-.1-.2-.1l-5.6-1.4c-.5-.1-.8-.6-.9-1.1l-.3-4.6c0-.7-.5-1.1-.9-1.1Z"/>
    <path class="st0" d="M22.8,24c-.2,0-.4,0-.6,0-.3,0-.6-.2-.9-.4l.4-.5c.2.1.4.2.6.3.3,0,.6,0,.9,0,.2,0,.3-.2.3-.3,0-.3-.3-.7-1-.8-.2,0-.4,0-.6,0v-.6c.2,0,.5,0,.8,0,1,.2,1.6.9,1.5,1.6,0,.3-.4.6-.8.8-.2,0-.4,0-.6,0Z"/>
    <path class="st1" d="M22,45.8h-5.3v-9.4l-4.7-8.8h6.2l3.8,7.6v10.7ZM17.3,45.2h4v-9.9l-3.5-7.1h-4.7l4.3,8v8.9Z"/>
    <polygon class="st1" points="10.5 43.1 12 35.7 10.8 27.7 15.2 27.6 15.2 28.2 11.5 28.3 12.6 35.7 11.3 42.5 14.8 42.3 16.1 35.8 15.9 34.9 16.6 34.8 16.7 35.8 15.3 43 10.5 43.1"/>
    <g>
      <path class="st1" d="M25.5,49.6h-3.9c0,0-.8-.3-.8-.3-.4,0-.5,0-.5,0,0,0,0,0,0,0v.2s-3.1,0-3.1,0v-3.7c0,0,.7,0,.7,0v3.1c0,0,1.8,0,1.8,0v-.2s.3,0,.3,0c.3,0,.4,0,.4,0,0,0,0,0,.6,0h0s.8.2.8.2h3.2s0,0,0,0c0-.2,0-.3,0-.5h0c-.1-.8-.7-1.2-1.8-1.2h0s0,0,0,0c-1.5,0-2.2-.8-2.6-1.4l.6-.3c.4.6,1.1,1,2,1.1,0,0,0,0,0,0h0c1.4,0,2.2.6,2.4,1.8h0c0,.2,0,.4,0,.6,0,.1,0,.5,0,.5v.3Z"/>
      <rect class="st1" x="22.2" y="47.1" width="1.4" height=".7" transform="translate(-24.9 69.6) rotate(-89)"/>
      <path class="st1" d="M19.2,48.2h-.7c0-.5-.4-1-.9-1h0s0,0,0,0v-.3s0,0,0,0v-.3s0,0,0,0h0c.9,0,1.6.7,1.6,1.6Z"/>
      <rect class="st1" x="21" y="44.2" width=".7" height="7.8" transform="translate(-27.2 68.6) rotate(-89)"/>
    </g>
    <g>
      <path class="st1" d="M17.4,46.6h-2.2s-.8-.3-.8-.3h-.3q-.2,0-.3,0s0,0,0,0v.2s-3.1,0-3.1,0v-3.7c0,0,.7,0,.7,0v3c0,0,1.7,0,1.7,0v-.2s.3,0,.3,0c.3,0,.3,0,.4,0t.3,0h.3s.8.2.8.2h2.1s0,.7,0,.7ZM17,44.2c-.1,0-.2,0-.3,0,0,0,0,0-.1,0-1.5,0-2.2-.8-2.5-1.3l.6-.3c.4.6,1,1,2,1,0,0,0,0,.1,0,.1,0,.2,0,.4,0v.6Z"/>
      <path class="st1" d="M12.8,45.1h-.7c0-.2,0-.5-.2-.6-.2-.2-.4-.3-.6-.3h0s0,0,0,0v-.2s0-.1,0-.1v-.3c0,0,0,0,0,0h0s0,0,0,0h0c.4,0,.8.2,1.1.5.3.3.4.7.4,1.1Z"/>
      <rect class="st1" x="13.7" y="42.2" width=".7" height="6" transform="translate(-31.4 58.5) rotate(-89)"/>
    </g>
    <rect class="st0" x="26.5" y="19.1" width=".7" height="4.9" transform="translate(-.7 42.2) rotate(-75.5)"/>
    <rect class="st0" x="18.6" y="15.7" width=".7" height="7.5" transform="translate(-4.7 32.9) rotate(-75.5)"/>
    <polygon class="st0" points="27 21.6 26.4 21.4 26.6 20.8 24.6 20.3 24.8 19.7 27.3 20.3 27 21.6"/>
    <rect class="st0" x="18.7" y="14.6" width=".7" height="7.8" transform="translate(-3.7 32.3) rotate(-75.5)"/>
    <path class="st0" d="M23.5,25.7c-.4,0-1.1-.3-1.2-.4h-.2c0-.1.4-1.7.4-1.7l.6.2-.3,1.1c.2,0,.5.2.6.2,1,0,1.9-1.1,1.9-2.5s0-.8-.2-1.2l.6-.3c.2.5.3.8.3,1.4,0,1.8-1.1,3.2-2.5,3.2Z"/>
    <rect class="st1" x="22.9" y="21.4" width=".7" height=".7" transform="translate(-3.3 39.1) rotate(-76.3)"/>
    <path class="st1" d="M4.4,47.7l-.5-.4c2.2-2.4,3-5.3,2.9-10.2,0-4.8,2.1-9.1,2.2-9.3l3.5-7.6.6.3-3.5,7.6c0,0-2.2,4.4-2.2,9,0,4.9-.8,8.1-3.1,10.6Z"/>
    <path class="st0" d="M24,21.8c0,0-.1,0-.2,0l-1.2-.3c-.2,0-.3-.2-.4-.3,0-.2-.1-.4,0-.5l.5-1.9c0-.3.4-.5.7-.5s.1,0,.2,0l1.2.3c.2,0,.3.2.4.3,0,.2.1.4,0,.5l-.5,1.9c0,.3-.4.5-.7.5ZM23.3,18.9s0,0,0,0l-.5,1.9s0,0,0,0c0,0,0,0,0,0l1.2.3s0,0,0,0l.5-1.9s0,0,0,0c0,0,0,0,0,0l-1.2-.3s0,0,0,0Z"/>
    <polygon class="st1" points="36 26.2 29.6 22.2 35.9 22.1 35.9 22.7 31.8 22.8 36.3 25.7 36 26.2"/>
  </g>
</svg>