<?xml version="1.0" encoding="UTF-8"?>
<svg id="Capa_1" xmlns="http://www.w3.org/2000/svg" version="1.1" viewBox="0 0 52 52">
  <!-- Generator: Adobe Illustrator 29.8.2, SVG Export Plug-In . SVG Version: 2.1.1 Build 3)  -->
  <defs>
    <style>
      .st0 {
        stroke-width: 3px;
      }

      .st0, .st1, .st2 {
        fill: none;
        stroke: #1f77d6;
        stroke-linecap: round;
        stroke-linejoin: round;
      }

      .st1 {
        stroke-width: .8px;
      }
    </style>
  </defs>
  <polygon class="st0" points="36.3 22.5 36.3 30.1 30.5 30.1 30.5 35.9 22.9 35.9 22.9 30.1 22.9 30.1 17.1 30.1 17.1 30.1 17.1 22.5 22.9 22.5 22.9 16.7 30.5 16.7 30.5 22.5 30.5 22.5 36.3 22.5 36.3 22.5"/>
  <path class="st0" d="M8.9,17.2c0-3.6.4-6,.4-6,8.4,0,15.4-4,17.4-5.2.7.4,1.9,1.1,3.5,1.9"/>
  <path class="st0" d="M39.8,10.9c1.4.2,2.8.3,4.2.3,0,0,2.1,13-3.4,24.6"/>
  <path class="st0" d="M9.8,26.5c1.6,8.3,5.9,17.9,16.9,23.1,3.2-1.5,5.8-3.4,8-5.5"/>
  <circle class="st1" cx="9.8" cy="42.2" r="1.9"/>
  <circle class="st1" cx="49.6" cy="24.5" r="2.4"/>
  <circle class="st1" cx="17.1" cy="4.2" r="1.8"/>
  <path class="st2" d="M5.9,16.7s1.6,5.9,5.9,5.9c-4.2,0-5.9,5.9-5.9,5.9,0,0-1.6-5.9-5.9-5.9,4.2,0,5.9-5.9,5.9-5.9Z"/>
  <path class="st1" d="M34.3,6.7s1,3.5,3.5,3.5c-2.5,0-3.5,3.5-3.5,3.5,0,0-1-3.5-3.5-3.5,2.5,0,3.5-3.5,3.5-3.5Z"/>
  <path class="st2" d="M39.1,37.1s1.3,4.6,4.6,4.6c-3.3,0-4.6,4.6-4.6,4.6,0,0-1.3-4.6-4.6-4.6,3.3,0,4.6-4.6,4.6-4.6Z"/>
</svg>