<?xml version="1.0" encoding="UTF-8"?>
<svg id="Capa_1" xmlns="http://www.w3.org/2000/svg" version="1.1" viewBox="0 0 52 52">
  <!-- Generator: Adobe Illustrator 29.8.2, SVG Export Plug-In . SVG Version: 2.1.1 Build 3)  -->
  <defs>
    <style>
      .st0 {
        fill: #1f77d6;
        stroke: #1f77d6;
        stroke-miterlimit: 10;
        stroke-width: 1.5px;
      }
    </style>
  </defs>
  <path class="st0" d="M38.4,12.3c-1.1-1.9-2.6-3.1-4.2-3.6v-3.4c0-1.3-1.1-2.4-2.4-2.4h-4.8c-1.3,0-2.4,1.1-2.4,2.4v3.3c-.9.2-1.7.7-2.4,1.2-5.3,4.3-8.7,9.7-10.2,16.1-.1.5-.2,1-.2,1.5v16.9c0,2.7,2.2,4.9,4.9,4.9h18.7c2.7,0,4.9-2.2,4.9-4.9v-25.5c0-2.3-.6-4.6-1.8-6.5ZM25.6,5.3c0-.8.6-1.4,1.4-1.4h4.8c.8,0,1.4.6,1.4,1.4v3.1c-.4,0-.8,0-1.2,0h-5.5c-.3,0-.5,0-.8,0v-3.1ZM39.2,44.3c0,2.1-1.7,3.8-3.8,3.8h-18.7c-2.1,0-3.8-1.7-3.8-3.8v-16.9c0-.4,0-.9.1-1.3,1.4-6.1,4.8-11.4,9.9-15.5.7-.6,1.5-.9,2.3-1.1.4,0,.8-.1,1.2-.1h5.5c.5,0,1.1,0,1.6.2,0,0,0,0,0,0,1.6.4,2.9,1.5,4,3.3,1.1,1.7,1.6,3.8,1.6,5.9v25.5Z"/>
  <path class="st0" d="M20.1,27.3c-.3,0-.5,0-.8-.2h0s-2.5-1.4-2.5-1.4c-.6-.4-.9-1.1-.7-1.8,1.2-3.6,3.1-6.8,5.6-9.7.5-.6,1.3-.7,1.9-.3l2.5,1.4c.7.4.9,1.2.7,1.9-1.3,3.4-3.2,6.6-5.5,9.6-.3.4-.8.6-1.2.6ZM19.9,26.2c.2.1.5,0,.6-.1,2.3-2.9,4.1-6,5.4-9.3,0-.2,0-.5-.2-.6l-2.5-1.4c-.2-.1-.5,0-.6.1-2.4,2.8-4.2,5.9-5.4,9.3,0,.2,0,.5.2.6l2.5,1.4Z"/>
</svg>