<?xml version="1.0" encoding="UTF-8"?>
<svg id="Capa_1" xmlns="http://www.w3.org/2000/svg" version="1.1" viewBox="0 0 52 52">
  <!-- Generator: Adobe Illustrator 29.8.2, SVG Export Plug-In . SVG Version: 2.1.1 Build 3)  -->
  <defs>
    <style>
      .st0 {
        fill: none;
        stroke: #1f77d6;
        stroke-linecap: round;
        stroke-linejoin: round;
        stroke-width: 2.5px;
      }
    </style>
  </defs>
  <g id="disinfect">
    <path class="st0" d="M13.2,28.9v19.3h7.8v-1.1c0-.6-.4-1.2-1-1.4l-1.2-.4.7-13.6,1.4-1.4"/>
    <path class="st0" d="M23.9,48.1h2.9v-1.1c0-.6-.4-1.2-1-1.4l-1.2-.4v-15"/>
    <path class="st0" d="M15.3,14.6h-1.4c-1.4,0-2.6,1.1-2.8,2.5l-.7,5.5c-.2,1.5.8,2.9,2.4,3.2l12.4,2.1c.9.1,1.7-.5,1.7-1.4v-.8c0-1-.7-1.9-1.7-2.1l-9.7-1.8v-2.9"/>
    <path class="st0" d="M13.2,11.7v-5c0-1.6,1.3-2.9,2.9-2.9h5.7c1.6,0,2.9,1.3,2.9,2.9v6.4c0,.8-.6,1.4-1.4,1.4h-5v-5c0-.8.6-1.4,1.4-1.4h2.1"/>
    <path class="st0" d="M21,14.6h.7c1.6,0,2.9,1.3,2.9,2.9v2.9"/>
    <polyline class="st0" points="26.8 26.7 38.1 26.7 38.8 28.1"/>
    <line class="st0" x1="16.1" y1="45.3" x2="18.9" y2="45.3"/>
    <line class="st0" x1="24.6" y1="45.3" x2="23.2" y2="45.3"/>
    <path class="st0" d="M10.3,10.3h-3.6c-1.6,0-2.9,1.3-2.9,2.9v15.7c0,1.6,1.3,2.9,2.9,2.9h3.6"/>
    <line class="st0" x1="38.8" y1="45.3" x2="38.8" y2="46"/>
    <line class="st0" x1="38.8" y1="41.7" x2="38.8" y2="42.4"/>
    <line class="st0" x1="38.8" y1="38.1" x2="38.8" y2="38.8"/>
    <line class="st0" x1="38.8" y1="34.6" x2="38.8" y2="35.3"/>
    <line class="st0" x1="47.4" y1="39.6" x2="48.1" y2="40.3"/>
    <line class="st0" x1="44.5" y1="36.7" x2="45.3" y2="37.4"/>
    <line class="st0" x1="41.7" y1="33.8" x2="42.4" y2="34.6"/>
    <line class="st0" x1="38.8" y1="31" x2="39.6" y2="31.7"/>
    <line class="st0" x1="30.3" y1="39.6" x2="29.6" y2="40.3"/>
    <line class="st0" x1="33.1" y1="36.7" x2="32.4" y2="37.4"/>
    <line class="st0" x1="36" y1="33.8" x2="35.3" y2="34.6"/>
    <line class="st0" x1="38.8" y1="31" x2="38.1" y2="31.7"/>
  </g>
</svg>