<?xml version="1.0" encoding="UTF-8"?>
<svg id="Capa_1" xmlns="http://www.w3.org/2000/svg" version="1.1" viewBox="0 0 52 52">
  <!-- Generator: Adobe Illustrator 29.8.2, SVG Export Plug-In . SVG Version: 2.1.1 Build 3)  -->
  <defs>
    <style>
      .st0 {
        fill: #1f77d6;
        stroke: #1f77d6;
        stroke-miterlimit: 10;
      }
    </style>
  </defs>
  <g id="NewGroupe7">
    <g id="NewGroup0-10">
      <g>
        <path class="st0" d="M6.4,39.7h.7v-14h-.7c-.4,0-.7-.3-.7-.7v15.3c0-.4.3-.7.7-.7h0Z"/>
        <path class="st0" d="M20.4,43.5v-19.7c0-3.1-1.9-5.7-4.6-6.8,0,0,0,0,0,0-.2,0-.4-.3-.4-.6h0c0-.5,0-1.2,0-1.7,0,0-.1,0-.2,0h-1.1c0,.5,0,1.1,0,1.7,0,.8.5,1.5,1.2,1.8,2.2.9,3.7,3,3.7,5.6v.6h.7c.4,0,.7.3.7.7v15.3c0,.4-.3.7-.7.7h-.7v2.5c0,1.1-.9,2-2,2h-8c-1.1,0-2-.9-2-2v-2.5h-.7c-.4,0-.7-.3-.7-.7v3.1c0,1.8,1.5,3.3,3.3,3.3h8c1.8,0,3.3-1.5,3.3-3.3h0Z"/>
        <polygon class="st0" points="14.7 13.5 14.7 13.5 14.7 13.5 14.7 13.5 14.7 13.5"/>
        <path class="st0" d="M6.4,24.4h.7v-.6c0-2.5,1.5-4.7,3.8-5.5.7-.3,1.2-1,1.2-1.8v-1.7h-1.1c0,0-.1,0-.2,0v1.7c0,.3-.2.5-.4.6,0,0,0,0,0,0-2.7,1.1-4.6,3.7-4.6,6.8v1.2c0-.4.3-.7.7-.7h0Z"/>
        <path class="st0" d="M10.5,25.1c0,.4.3.7.7.7h7.9v14H6.4c-.4,0-.7.3-.7.7s.3.7.7.7h13.3c.4,0,.7-.3.7-.7v-15.3c0-.4-.3-.7-.7-.7h-8.5c-.4,0-.7.3-.7.7h0Z"/>
        <path class="st0" d="M6.4,25.7h2.1c.4,0,.7-.3.7-.7s-.3-.7-.7-.7h-2.1c-.4,0-.7.3-.7.7s.3.7.7.7h0Z"/>
        <path class="st0" d="M13.1,11.5h2.1c.3,0,.5.1.7.3.2.2.3.4.3.7h0c0,.3-.1.5-.3.7-.2.2-.4.3-.7.3h-4.3c-.3,0-.5-.1-.7-.3-.2-.2-.3-.4-.3-.7h0c0-.3.1-.5.3-.7.2-.2.4-.3.7-.3h2.1c-.2,0-.3,0-.4-.2-.1,0-.2-.2-.2-.4,0,0,0,0,0,0h0c0-.2,0-.4,0-.7h-1.5c-.6,0-1.2.2-1.6.7-.4.4-.7,1-.7,1.6h0c0,.6.2,1.2.7,1.6.4.4.9.6,1.5.7,0,0,.1,0,.2,0h4.3c0,0,.1,0,.2,0,.5,0,1.1-.3,1.5-.7s.7-1,.7-1.6h0c0-.6-.2-1.2-.7-1.6-.4-.4-1-.7-1.6-.7h-1.4c0,.2,0,.4,0,.7,0,.6-.7.7-.7.7h0Z"/>
        <path class="st0" d="M12.5,10.2c0,.2,0,.4,0,.7h0s0,0,0,0c0,.2,0,.3.2.4.1.1.3.2.4.2,0,0,.7,0,.7-.7s0-.4,0-.7c.3-2.1,2.1-3.6,4.2-3.6h.5c1.3,0,2.6.5,3.6,1.5,1,1,1.5,2.2,1.5,3.6v18.6c0,1.9,1.5,3.4,3.4,3.4h.2c1.9,0,3.4-1.5,3.4-3.4v-7.6c0-.3.2-.5.4-.6l1.2-.5c.3-.1.5-.5.4-.9-.1-.3-.5-.5-.9-.4,0,0-.7.3-1.2.5-.7.3-1.2,1-1.2,1.8v7.6c0,1.2-1,2.1-2.1,2.1h-.2c-1.2,0-2.1-1-2.1-2.1V11.6c0-1.7-.7-3.3-1.9-4.5-1.2-1.2-2.8-1.9-4.5-1.9h-.5c-2.9,0-5.2,2.2-5.6,5h0Z"/>
        <path class="st0" d="M46,15.7c-.2-.3-.6-.4-.9-.3-.3.2-.4.6-.3.9,0,0,0,.2.1.3.1.3.5.5.9.3.3-.1.5-.5.3-.9,0-.1-.1-.2-.2-.3h0Z"/>
        <path class="st0" d="M42.4,13.8c.3.2.7.4,1,.7.3.2.7.2.9,0,.2-.3.2-.7,0-.9-.4-.3-.8-.6-1.2-.8-.3-.2-.7,0-.9.3-.2.3,0,.7.3.9h0Z"/>
        <path class="st0" d="M35.8,14.6c.3-.3.6-.5,1-.7.3-.2.4-.6.2-.9-.2-.3-.6-.4-.9-.2-.4.2-.8.5-1.2.8-.3.2-.3.7,0,.9.2.3.7.3.9,0h0Z"/>
        <path class="st0" d="M38.9,13.2h0c.4,0,.8,0,1.2,0,.4,0,.7-.2.7-.6,0-.4-.2-.7-.6-.7-.5,0-1,0-1.4,0-.4,0-.6.4-.6.7,0,.4.4.6.7.6h0Z"/>
        <path class="st0" d="M33.2,18.1c.4,0,.7-.1.8-.5,0-.4.2-.8.4-1.1.2-.3,0-.7-.3-.9-.3-.2-.7,0-.9.3-.2.4-.4.9-.5,1.4,0,.4.1.7.5.8h0Z"/>
        <path class="st0" d="M44.7,21.3c.2.3.6.4.9.2.3-.2.4-.6.2-.9-.1-.2-.3-.5-.5-.7-.2-.3-.6-.3-.9-.1-.3.2-.3.6-.1.9h0c.1.2.3.4.4.6h0Z"/>
        <path class="st0" d="M38,18.7c.4-.1.8-.2,1.2-.2.4,0,.6-.4.6-.7,0-.4-.4-.6-.7-.6-.5,0-1,.1-1.4.3-.3.1-.5.5-.4.8.1.3.5.5.8.4h0Z"/>
        <path class="st0" d="M41.4,18.7c.4.1.7.3,1.1.5.3.2.7,0,.9-.3.2-.3,0-.7-.3-.9-.4-.2-.9-.4-1.3-.6-.3-.1-.7,0-.8.4-.1.3,0,.7.4.8h0Z"/>
        <path class="st0" d="M34.2,20.8c.3.2.7.2.9-.1.2-.3.5-.6.8-.9.3-.2.3-.7,0-.9-.2-.3-.7-.3-.9,0-.4.3-.7.7-1,1-.2.3-.2.7.1.9h0Z"/>
        <path class="st0" d="M39.6,21.8c-.4,0-.7.2-.8.5,0,.4.2.7.5.8.4,0,.8.2,1.1.3.3.1.7,0,.9-.4.1-.3,0-.7-.4-.9-.5-.2-.9-.3-1.4-.4h0Z"/>
        <path class="st0" d="M43.4,23.8c-.3-.3-.7-.3-.9,0-.3.3-.3.7,0,.9.1.1.2.2.3.3.2.3.6.3.9,0,.3-.2.3-.6,0-.9-.1-.1-.2-.3-.4-.4h0Z"/>
      </g>
    </g>
  </g>
</svg>